# File created by Blade
# Date/Time:  Fri Jan 16 19:14:28 2015
# Frame Rate: 120.000 fps
#------------------------------------------------------
:FULLY-SPECIFIED
:DEGREES
388
root 18.941481 35.675266 -22.527273 -164.791912 -1.141440 -178.270870
Spine -28.448573 1.098354 -0.094228
Head 16.627112 -1.458322 0.108705
LeftShoulder -27.738565 -55.880072 61.101544
LeftArm 42.722547 -47.842773 -3.116232
LeftForeArm 11.726152 0.000000 72.439096
LeftHand -16.541427 -0.000000 -34.036675
LeftHandThumb1 -26.253704 0.000000 33.147579
RightShoulder -16.992077 16.409241 -39.997715
RightArm 40.496260 75.304430 2.107103
RightForeArm -79.884107 -0.000000 87.217007
RightHand -8.780471 0.000000 43.969692
RightHandThumb1 -24.326973 -0.000000 -32.862282
LeftUpLeg -4.916732 7.441472 0.286710
LeftLeg -7.660732 -0.000000 0.000000
LeftFoot -20.643528 28.368349 -15.344407
LeftToeBase 24.209449 -0.000000 -0.000000
RightUpLeg -6.829426 -9.470622 1.932005
RightLeg -3.867246 -0.000000 0.000000
RightFoot -20.088115 -22.381168 19.730604
RightToeBase 22.884742 -0.000000 -0.000000
389
root 18.939967 35.674623 -22.536649 -164.755510 -1.127016 -178.270605
Spine -28.514559 1.087494 -0.047802
Head 16.679421 -1.437943 0.031933
LeftShoulder -27.911458 -55.773664 61.086781
LeftArm 42.601729 -48.013727 -3.112708
LeftForeArm 11.806916 -0.000000 73.143362
LeftHand -16.443038 0.000000 -34.052011
LeftHandThumb1 -26.253704 0.000000 33.147579
RightShoulder -17.145025 16.312652 -39.908844
RightArm 40.458715 75.472163 2.179204
RightForeArm -79.867166 -0.000000 87.949410
RightHand -8.778868 0.000000 44.104032
RightHandThumb1 -24.326973 -0.000000 -32.862282
LeftUpLeg -4.933584 7.454539 0.278576
LeftLeg -7.665447 -0.000000 0.000000
LeftFoot -20.659453 28.367974 -15.361155
LeftToeBase 24.216127 -0.000000 -0.000000
RightUpLeg -6.846963 -9.482891 1.938132
RightLeg -3.881690 -0.000000 0.000000
RightFoot -20.098298 -22.370163 19.738848
RightToeBase 22.932706 -0.000000 -0.000000
390
root 18.939938 35.672923 -22.547637 -164.723286 -1.104816 -178.272708
Spine -28.585986 1.098696 -0.021232
Head 16.744256 -1.426493 -0.011676
LeftShoulder -28.110001 -55.641906 61.106087
LeftArm 42.462599 -48.171686 -3.115840
LeftForeArm 11.843025 -0.000000 73.867107
LeftHand -16.627766 -0.000000 -34.336316
LeftHandThumb1 -26.253704 0.000000 33.147579
RightShoulder -17.283488 16.279191 -39.858048
RightArm 40.402745 75.554686 2.210561
RightForeArm -79.941598 0.000000 88.654431
RightHand -8.738951 0.000000 44.340665
RightHandThumb1 -24.326973 -0.000000 -32.862282
LeftUpLeg -4.937153 7.475970 0.270008
LeftLeg -7.679148 -0.000000 0.000000
LeftFoot -20.676837 28.361167 -15.372427
LeftToeBase 24.242320 -0.000000 -0.000000
RightUpLeg -6.863851 -9.481324 1.937051
RightLeg -3.883310 -0.000000 0.000000
RightFoot -20.107359 -22.365915 19.720594
RightToeBase 22.946674 -0.000000 -0.000000
391
root 18.938870 35.671445 -22.554390 -164.668827 -1.093204 -178.282235
Spine -28.674398 1.088376 -0.003690
Head 16.808594 -1.457155 -0.066390
LeftShoulder -28.228824 -55.548531 61.112520
LeftArm 42.278044 -48.343195 -3.070982
LeftForeArm 11.873400 -0.000000 74.513865
LeftHand -16.464211 -0.000000 -34.326127
LeftHandThumb1 -26.253704 0.000000 33.147579
RightShoulder -17.396567 16.296205 -39.823687
RightArm 39.985808 75.572637 1.921267
RightForeArm -80.148858 -0.000000 89.390008
RightHand -8.563189 -0.000000 44.422536
RightHandThumb1 -24.326973 -0.000000 -32.862282
LeftUpLeg -4.983721 7.478386 0.251592
LeftLeg -7.668714 -0.000000 0.000000
LeftFoot -20.687695 28.360746 -15.375053
LeftToeBase 24.168410 -0.000000 -0.000000
RightUpLeg -6.911438 -9.473375 1.928620
RightLeg -3.874899 -0.000000 0.000000
RightFoot -20.122168 -22.348350 19.711379
RightToeBase 22.918296 -0.000000 -0.000000
392
root 18.938785 35.670372 -22.563066 -164.636112 -1.085182 -178.284481
Spine -28.741384 1.084376 0.022570
Head 16.878455 -1.466637 -0.109717
LeftShoulder -28.352555 -55.435966 61.120931
LeftArm 42.086066 -48.522322 -3.050146
LeftForeArm 11.966008 -0.000000 75.290198
LeftHand -16.679151 -0.000000 -34.589635
LeftHandThumb1 -26.253704 0.000000 33.147579
RightShoulder -17.503308 16.280416 -39.792203
RightArm 39.775035 75.633490 1.846325
RightForeArm -80.149771 -0.000000 90.095045
RightHand -8.658433 -0.000000 44.471029
RightHandThumb1 -24.326973 -0.000000 -32.862282
LeftUpLeg -4.999135 7.468718 0.248321
LeftLeg -7.672633 -0.000000 0.000000
LeftFoot -20.714992 28.380984 -15.392403
LeftToeBase 24.242976 -0.000000 -0.000000
RightUpLeg -6.929441 -9.417060 1.916540
RightLeg -3.871381 -0.000000 0.000000
RightFoot -20.156578 -22.371714 19.728969
RightToeBase 22.931532 -0.000000 -0.000000
393
root 18.938921 35.669239 -22.572490 -164.614080 -1.085074 -178.291789
Spine -28.801021 1.088677 0.033438
Head 16.954483 -1.527428 -0.151060
LeftShoulder -28.474302 -55.355559 61.164775
LeftArm 41.895469 -48.685435 -3.115212
LeftForeArm 12.375796 -0.000000 76.105106
LeftHand -16.710329 -0.000000 -34.692530
LeftHandThumb1 -26.253704 0.000000 33.147579
RightShoulder -17.586981 16.276390 -39.792759
RightArm 39.274531 75.676504 1.508448
RightForeArm -80.181565 0.000000 90.863566
RightHand -8.701387 -0.000000 44.650737
RightHandThumb1 -24.326973 -0.000000 -32.862282
LeftUpLeg -5.007089 7.463888 0.242262
LeftLeg -7.665466 -0.000000 0.000000
LeftFoot -20.735921 28.363311 -15.411809
LeftToeBase 24.209049 -0.000000 -0.000000
RightUpLeg -6.931008 -9.423797 1.911180
RightLeg -3.879941 -0.000000 0.000000
RightFoot -20.172424 -22.353335 19.744556
RightToeBase 22.924975 -0.000000 -0.000000
394
root 18.938284 35.668746 -22.580718 -164.592403 -1.084143 -178.297610
Spine -28.853561 1.084480 0.064595
Head 17.025819 -1.581911 -0.242523
LeftShoulder -28.558750 -55.253208 61.133613
LeftArm 41.758450 -48.925294 -3.186633
LeftForeArm 12.332172 0.000000 76.873225
LeftHand -16.930896 -0.000000 -34.866320
LeftHandThumb1 -26.253704 0.000000 33.147579
RightShoulder -17.636492 16.254632 -39.774669
RightArm 38.724157 75.767117 1.089078
RightForeArm -80.273261 -0.000000 91.596430
RightHand -8.747749 -0.000000 44.818193
RightHandThumb1 -24.326973 -0.000000 -32.862282
LeftUpLeg -5.018042 7.453691 0.235614
LeftLeg -7.659430 -0.000000 0.000000
LeftFoot -20.733459 28.372754 -15.414204
LeftToeBase 24.176516 -0.000000 -0.000000
RightUpLeg -6.937627 -9.414618 1.903483
RightLeg -3.879550 -0.000000 0.000000
RightFoot -20.185775 -22.354039 19.753156
RightToeBase 22.909857 -0.000000 -0.000000
395
root 18.939382 35.667824 -22.592344 -164.588039 -1.086014 -178.301985
Spine -28.895206 1.091602 0.073283
Head 17.090270 -1.681758 -0.296560
LeftShoulder -28.595949 -55.161783 61.070245
LeftArm 41.617562 -49.158314 -3.244035
LeftForeArm 12.484277 -0.000000 77.576944
LeftHand -16.856128 -0.000000 -34.761925
LeftHandThumb1 -26.253704 0.000000 33.147579
RightShoulder -17.685592 16.246026 -39.750002
RightArm 38.251899 75.854291 0.777048
RightForeArm -80.501288 -0.000000 92.348289
RightHand -8.717672 0.000000 45.004632
RightHandThumb1 -24.326973 -0.000000 -32.862282
LeftUpLeg -4.997853 7.421250 0.240196
LeftLeg -7.667035 -0.000000 0.000000
LeftFoot -20.764074 28.392569 -15.458261
LeftToeBase 24.171402 -0.000000 -0.000000
RightUpLeg -6.915568 -9.409053 1.898302
RightLeg -3.892203 -0.000000 0.000000
RightFoot -20.208524 -22.357721 19.772152
RightToeBase 22.895537 -0.000000 -0.000000
